{
	"patcher" : 	{
		"fileversion" : 1,
		"appversion" : 		{
			"major" : 8,
			"minor" : 5,
			"revision" : 6,
			"architecture" : "x64",
			"modernui" : 1
		}
,
		"classnamespace" : "box",
		"rect" : [ -1566.0, 451.0, 1532.0, 779.0 ],
		"bglocked" : 0,
		"openinpresentation" : 1,
		"default_fontsize" : 12.0,
		"default_fontface" : 0,
		"default_fontname" : "Arial",
		"gridonopen" : 1,
		"gridsize" : [ 15.0, 15.0 ],
		"gridsnaponopen" : 1,
		"objectsnaponopen" : 1,
		"statusbarvisible" : 2,
		"toolbarvisible" : 1,
		"lefttoolbarpinned" : 0,
		"toptoolbarpinned" : 0,
		"righttoolbarpinned" : 0,
		"bottomtoolbarpinned" : 0,
		"toolbars_unpinned_last_save" : 0,
		"tallnewobj" : 0,
		"boxanimatetime" : 200,
		"enablehscroll" : 1,
		"enablevscroll" : 1,
		"devicewidth" : 0.0,
		"description" : "",
		"digest" : "",
		"tags" : "",
		"style" : "",
		"subpatcher_template" : "base",
		"assistshowspatchername" : 0,
		"boxes" : [ 			{
				"box" : 				{
					"id" : "obj-71",
					"maxclass" : "newobj",
					"numinlets" : 1,
					"numoutlets" : 3,
					"outlettype" : [ "float", "float", "float" ],
					"patching_rect" : [ 531.0, 63.0, 67.0, 22.0 ],
					"text" : "unpack f f f"
				}

			}
, 			{
				"box" : 				{
					"candycane" : 8,
					"contdata" : 1,
					"id" : "obj-67",
					"maxclass" : "multislider",
					"numinlets" : 1,
					"numoutlets" : 2,
					"orientation" : 0,
					"outlettype" : [ "", "" ],
					"parameter_enable" : 0,
					"patching_rect" : [ 444.0, 125.741399884223938, 172.0, 61.0 ],
					"setstyle" : 1,
					"signed" : 1,
					"size" : 4,
					"spacing" : 2
				}

			}
, 			{
				"box" : 				{
					"id" : "obj-44",
					"maxclass" : "newobj",
					"numinlets" : 2,
					"numoutlets" : 2,
					"outlettype" : [ "", "" ],
					"patching_rect" : [ 502.0, -4.0, 69.0, 22.0 ],
					"text" : "route /euler"
				}

			}
, 			{
				"box" : 				{
					"id" : "obj-41",
					"linecount" : 2,
					"maxclass" : "message",
					"numinlets" : 2,
					"numoutlets" : 1,
					"outlettype" : [ "" ],
					"patching_rect" : [ 809.0, 226.0, 50.0, 35.0 ],
					"text" : "-11.934883"
				}

			}
, 			{
				"box" : 				{
					"id" : "obj-28",
					"maxclass" : "newobj",
					"numinlets" : 6,
					"numoutlets" : 1,
					"outlettype" : [ "" ],
					"patching_rect" : [ 655.0, 280.0, 125.0, 22.0 ],
					"text" : "scale -180. 180. -1. 1."
				}

			}
, 			{
				"box" : 				{
					"id" : "obj-27",
					"maxclass" : "newobj",
					"numinlets" : 6,
					"numoutlets" : 1,
					"outlettype" : [ "" ],
					"patching_rect" : [ 584.0, 247.0, 125.0, 22.0 ],
					"text" : "scale -180. 180. -1. 1."
				}

			}
, 			{
				"box" : 				{
					"id" : "obj-26",
					"maxclass" : "newobj",
					"numinlets" : 6,
					"numoutlets" : 1,
					"outlettype" : [ "" ],
					"patching_rect" : [ 559.0, 220.0, 125.0, 22.0 ],
					"text" : "scale -180. 180. -1. 1."
				}

			}
, 			{
				"box" : 				{
					"id" : "obj-25",
					"maxclass" : "newobj",
					"numinlets" : 1,
					"numoutlets" : 2,
					"outlettype" : [ "list", "" ],
					"patching_rect" : [ 624.0, 98.0, 77.0, 22.0 ],
					"text" : "jit.quat2euler"
				}

			}
, 			{
				"box" : 				{
					"args" : [ 1 ],
					"bgcolor" : [ 0.6, 0.6, 0.6, 1.0 ],
					"bgmode" : 2,
					"border" : 1,
					"clickthrough" : 0,
					"enablehscroll" : 0,
					"enablevscroll" : 0,
					"id" : "obj-6",
					"lockeddragscroll" : 0,
					"lockedsize" : 0,
					"maxclass" : "bpatcher",
					"name" : "mo.monitor.maxpat",
					"numinlets" : 2,
					"numoutlets" : 1,
					"offset" : [ 0.0, 0.0 ],
					"outlettype" : [ "" ],
					"patching_rect" : [ 29.274725514479968, 422.241399884223881, 214.0, 45.0 ],
					"presentation" : 1,
					"presentation_rect" : [ 15.0, 216.0, 214.0, 45.0 ],
					"varname" : "mo.monitor",
					"viewvisibility" : 1
				}

			}
, 			{
				"box" : 				{
					"id" : "obj-24",
					"maxclass" : "newobj",
					"numinlets" : 1,
					"numoutlets" : 1,
					"outlettype" : [ "float" ],
					"patching_rect" : [ 759.273731240204597, 350.241399884223938, 41.0, 22.0 ],
					"text" : "abs 0."
				}

			}
, 			{
				"box" : 				{
					"id" : "obj-1",
					"maxclass" : "newobj",
					"numinlets" : 1,
					"numoutlets" : 1,
					"outlettype" : [ "float" ],
					"patching_rect" : [ 671.5, 350.241399884223938, 41.0, 22.0 ],
					"text" : "abs 0."
				}

			}
, 			{
				"box" : 				{
					"id" : "obj-17",
					"maxclass" : "newobj",
					"numinlets" : 1,
					"numoutlets" : 1,
					"outlettype" : [ "float" ],
					"patching_rect" : [ 715.464207430680631, 350.241399884223938, 41.0, 22.0 ],
					"text" : "abs 0."
				}

			}
, 			{
				"box" : 				{
					"id" : "obj-4",
					"maxclass" : "newobj",
					"numinlets" : 0,
					"numoutlets" : 0,
					"patcher" : 					{
						"fileversion" : 1,
						"appversion" : 						{
							"major" : 8,
							"minor" : 5,
							"revision" : 6,
							"architecture" : "x64",
							"modernui" : 1
						}
,
						"classnamespace" : "box",
						"rect" : [ 34.0, 87.0, 1532.0, 779.0 ],
						"bglocked" : 0,
						"openinpresentation" : 0,
						"default_fontsize" : 12.0,
						"default_fontface" : 0,
						"default_fontname" : "Arial",
						"gridonopen" : 1,
						"gridsize" : [ 15.0, 15.0 ],
						"gridsnaponopen" : 1,
						"objectsnaponopen" : 1,
						"statusbarvisible" : 2,
						"toolbarvisible" : 1,
						"lefttoolbarpinned" : 0,
						"toptoolbarpinned" : 0,
						"righttoolbarpinned" : 0,
						"bottomtoolbarpinned" : 0,
						"toolbars_unpinned_last_save" : 0,
						"tallnewobj" : 0,
						"boxanimatetime" : 200,
						"enablehscroll" : 1,
						"enablevscroll" : 1,
						"devicewidth" : 0.0,
						"description" : "",
						"digest" : "",
						"tags" : "",
						"style" : "",
						"subpatcher_template" : "base",
						"assistshowspatchername" : 0,
						"boxes" : [ 							{
								"box" : 								{
									"id" : "obj-139",
									"linecount" : 3,
									"maxclass" : "comment",
									"numinlets" : 1,
									"numoutlets" : 0,
									"patching_rect" : [ 365.0, 145.0, 108.630874097347203, 47.0 ],
									"text" : "Gesture data is cleaned and visualized"
								}

							}
, 							{
								"box" : 								{
									"color" : [ 0.956862745098039, 1.0, 0.0, 1.0 ],
									"id" : "obj-64",
									"maxclass" : "newobj",
									"numinlets" : 0,
									"numoutlets" : 1,
									"outlettype" : [ "" ],
									"patching_rect" : [ 342.77373124020437, 100.0, 45.0, 22.0 ],
									"text" : "r steps"
								}

							}
, 							{
								"box" : 								{
									"color" : [ 0.956862745098039, 1.0, 0.0, 1.0 ],
									"id" : "obj-66",
									"maxclass" : "newobj",
									"numinlets" : 0,
									"numoutlets" : 1,
									"outlettype" : [ "" ],
									"patching_rect" : [ 216.023809523809632, 100.0, 53.0, 22.0 ],
									"text" : "r activity"
								}

							}
, 							{
								"box" : 								{
									"color" : [ 0.956862745098039, 1.0, 0.0, 1.0 ],
									"id" : "obj-67",
									"maxclass" : "newobj",
									"numinlets" : 0,
									"numoutlets" : 1,
									"outlettype" : [ "" ],
									"patching_rect" : [ 50.0, 100.0, 56.0, 22.0 ],
									"text" : "r stability"
								}

							}
, 							{
								"box" : 								{
									"bgcolor" : [ 0.831372549019608, 0.831372549019608, 0.831372549019608, 0.968627450980392 ],
									"border" : 0.0,
									"bordercolor" : [ 0.0, 0.0, 0.0, 0.97 ],
									"fontface" : 0,
									"fontname" : "Ableton Sans Medium",
									"fontsize" : 20.0,
									"id" : "obj-65",
									"keymode" : 1,
									"lines" : 1,
									"maxclass" : "textedit",
									"nosymquotes" : 1,
									"numinlets" : 1,
									"numoutlets" : 4,
									"outlettype" : [ "", "int", "", "" ],
									"parameter_enable" : 0,
									"patching_rect" : [ 197.528985818227284, 257.166644111816368, 45.994823705582462, 27.65217399597168 ],
									"presentation" : 1,
									"presentation_rect" : [ 668.0, 210.0, 50.000000000000057, 28.699341982603073 ],
									"rounded" : 0.0,
									"saved_attribute_attributes" : 									{
										"textcolor" : 										{
											"expression" : "themecolor.live_control_text_selection"
										}

									}
,
									"text" : "0.97",
									"textcolor" : [ 0.0, 0.0, 0.0, 1.0 ],
									"valuemode" : 1,
									"varname" : "notepad-[4]"
								}

							}
, 							{
								"box" : 								{
									"id" : "obj-61",
									"maxclass" : "newobj",
									"numinlets" : 1,
									"numoutlets" : 2,
									"outlettype" : [ "", "float" ],
									"patching_rect" : [ 216.023809523809632, 135.166644111816368, 79.0, 22.0 ],
									"text" : "unpack sym f"
								}

							}
, 							{
								"box" : 								{
									"id" : "obj-17",
									"maxclass" : "newobj",
									"numinlets" : 1,
									"numoutlets" : 1,
									"outlettype" : [ "" ],
									"patching_rect" : [ 245.523809523809632, 200.865986094419441, 72.0, 22.0 ],
									"text" : "prepend set"
								}

							}
, 							{
								"box" : 								{
									"fontname" : "Arial",
									"fontsize" : 13.0,
									"id" : "obj-24",
									"maxclass" : "newobj",
									"numinlets" : 1,
									"numoutlets" : 5,
									"outlettype" : [ "", "", "", "", "" ],
									"patching_rect" : [ 216.023809523809632, 167.166644111816368, 78.0, 23.0 ],
									"text" : "regexp \\\\w+"
								}

							}
, 							{
								"box" : 								{
									"id" : "obj-96",
									"maxclass" : "newobj",
									"numinlets" : 1,
									"numoutlets" : 1,
									"outlettype" : [ "" ],
									"patching_rect" : [ 79.5, 194.309504524414024, 72.0, 22.0 ],
									"text" : "prepend set"
								}

							}
, 							{
								"box" : 								{
									"fontname" : "Arial",
									"fontsize" : 13.0,
									"id" : "obj-71",
									"maxclass" : "newobj",
									"numinlets" : 1,
									"numoutlets" : 5,
									"outlettype" : [ "", "", "", "", "" ],
									"patching_rect" : [ 50.0, 162.666644111816368, 78.0, 23.0 ],
									"text" : "regexp \\\\w+"
								}

							}
, 							{
								"box" : 								{
									"bgcolor" : [ 0.831372549019608, 0.831372549019608, 0.831372549019608, 0.968627450980392 ],
									"border" : 0.0,
									"bordercolor" : [ 0.0, 0.0, 0.0, 0.97 ],
									"fontface" : 0,
									"fontname" : "Ableton Sans Medium",
									"fontsize" : 20.0,
									"id" : "obj-57",
									"keymode" : 1,
									"lines" : 1,
									"maxclass" : "textedit",
									"nosymquotes" : 1,
									"numinlets" : 1,
									"numoutlets" : 4,
									"outlettype" : [ "", "int", "", "" ],
									"parameter_enable" : 0,
									"patching_rect" : [ 245.523809523809632, 257.166644111816368, 77.976190476190368, 27.65217399597168 ],
									"presentation" : 1,
									"presentation_rect" : [ 585.0, 210.0, 120.0, 28.699341982603073 ],
									"rounded" : 0.0,
									"saved_attribute_attributes" : 									{
										"textcolor" : 										{
											"expression" : "themecolor.live_control_text_selection"
										}

									}
,
									"text" : "Still",
									"textcolor" : [ 0.0, 0.0, 0.0, 1.0 ],
									"valuemode" : 1,
									"varname" : "notepad-[3]"
								}

							}
, 							{
								"box" : 								{
									"bgcolor" : [ 0.831372549019608, 0.831372549019608, 0.831372549019608, 0.968627450980392 ],
									"border" : 0.0,
									"bordercolor" : [ 0.0, 0.0, 0.0, 0.97 ],
									"fontface" : 0,
									"fontname" : "Ableton Sans Medium",
									"fontsize" : 20.0,
									"id" : "obj-56",
									"keymode" : 1,
									"lines" : 1,
									"maxclass" : "textedit",
									"nosymquotes" : 1,
									"numinlets" : 1,
									"numoutlets" : 4,
									"outlettype" : [ "", "int", "", "" ],
									"parameter_enable" : 0,
									"patching_rect" : [ 70.5, 257.309504524414024, 120.0, 28.699341982603073 ],
									"presentation" : 1,
									"presentation_rect" : [ 256.620690762996617, 210.0, 90.758618474006767, 24.699341982603073 ],
									"rounded" : 0.0,
									"saved_attribute_attributes" : 									{
										"textcolor" : 										{
											"expression" : "themecolor.live_control_text_selection"
										}

									}
,
									"text" : "On Table",
									"textcolor" : [ 0.0, 0.0, 0.0, 1.0 ],
									"valuemode" : 1,
									"varname" : "notepad-[1]"
								}

							}
, 							{
								"box" : 								{
									"bgcolor" : [ 0.831372549019608, 0.831372549019608, 0.831372549019608, 0.968627450980392 ],
									"border" : 0.0,
									"bordercolor" : [ 0.0, 0.0, 0.0, 0.97 ],
									"fontface" : 0,
									"fontname" : "Ableton Sans Medium",
									"fontsize" : 20.0,
									"id" : "obj-44",
									"keymode" : 1,
									"lines" : 1,
									"maxclass" : "textedit",
									"nosymquotes" : 1,
									"numinlets" : 1,
									"numoutlets" : 4,
									"outlettype" : [ "", "int", "", "" ],
									"parameter_enable" : 0,
									"patching_rect" : [ 342.77373124020437, 257.166644111816368, 120.0, 28.699341982603073 ],
									"presentation" : 1,
									"presentation_rect" : [ 585.0, 388.0, 41.0, 26.699341982603073 ],
									"rounded" : 0.0,
									"saved_attribute_attributes" : 									{
										"textcolor" : 										{
											"expression" : "themecolor.live_control_text_selection"
										}

									}
,
									"text" : "49",
									"textcolor" : [ 0.0, 0.0, 0.0, 1.0 ],
									"valuemode" : 1,
									"varname" : "notepad-[2]"
								}

							}
, 							{
								"box" : 								{
									"bgcolor" : [ 0.0, 0.0, 0.0, 0.0 ],
									"fontface" : 0,
									"fontsize" : 12.0,
									"id" : "obj-41",
									"maxclass" : "comment",
									"numinlets" : 1,
									"numoutlets" : 0,
									"patching_rect" : [ 342.77373124020437, 226.166644111816368, 74.0, 20.0 ],
									"presentation" : 1,
									"presentation_rect" : [ 585.0, 368.699341982603073, 73.0, 20.0 ],
									"text" : "Step Count",
									"textjustification" : 1
								}

							}
, 							{
								"box" : 								{
									"fontface" : 0,
									"fontsize" : 12.0,
									"id" : "obj-40",
									"maxclass" : "comment",
									"numinlets" : 1,
									"numoutlets" : 0,
									"patching_rect" : [ 202.5, 226.166644111816368, 53.0, 20.0 ],
									"presentation" : 1,
									"presentation_rect" : [ 585.0, 190.699341982603073, 53.0, 20.0 ],
									"text" : "Activity",
									"textjustification" : 1
								}

							}
, 							{
								"box" : 								{
									"fontface" : 0,
									"fontsize" : 12.0,
									"id" : "obj-28",
									"maxclass" : "comment",
									"numinlets" : 1,
									"numoutlets" : 0,
									"patching_rect" : [ 70.5, 226.309504524414024, 55.0, 20.0 ],
									"presentation" : 1,
									"presentation_rect" : [ 256.620690762996617, 190.699341982603073, 54.0, 20.0 ],
									"text" : "Stability",
									"textjustification" : 1
								}

							}
 ],
						"lines" : [ 							{
								"patchline" : 								{
									"destination" : [ "obj-57", 0 ],
									"source" : [ "obj-17", 0 ]
								}

							}
, 							{
								"patchline" : 								{
									"destination" : [ "obj-17", 0 ],
									"source" : [ "obj-24", 2 ]
								}

							}
, 							{
								"patchline" : 								{
									"destination" : [ "obj-24", 0 ],
									"source" : [ "obj-61", 0 ]
								}

							}
, 							{
								"patchline" : 								{
									"destination" : [ "obj-65", 0 ],
									"source" : [ "obj-61", 1 ]
								}

							}
, 							{
								"patchline" : 								{
									"destination" : [ "obj-96", 0 ],
									"source" : [ "obj-71", 2 ]
								}

							}
, 							{
								"patchline" : 								{
									"destination" : [ "obj-56", 0 ],
									"source" : [ "obj-96", 0 ]
								}

							}
 ]
					}
,
					"patching_rect" : [ 301.132461984044085, 727.036168243856764, 107.0, 22.0 ],
					"saved_object_attributes" : 					{
						"description" : "",
						"digest" : "",
						"globalpatchername" : "",
						"tags" : ""
					}
,
					"text" : "p discrete_unused"
				}

			}
, 			{
				"box" : 				{
					"bgmode" : 0,
					"border" : 1,
					"clickthrough" : 0,
					"enablehscroll" : 0,
					"enablevscroll" : 0,
					"id" : "obj-2",
					"lockeddragscroll" : 0,
					"lockedsize" : 0,
					"maxclass" : "bpatcher",
					"name" : "mo.smooth.maxpat",
					"numinlets" : 2,
					"numoutlets" : 1,
					"offset" : [ 0.0, 0.0 ],
					"outlettype" : [ "" ],
					"patching_rect" : [ 920.023806980678273, 99.500690107345577, 70.0, 62.0 ],
					"varname" : "mo.scale[3]",
					"viewvisibility" : 1
				}

			}
, 			{
				"box" : 				{
					"id" : "obj-137",
					"linecount" : 3,
					"maxclass" : "comment",
					"numinlets" : 1,
					"numoutlets" : 0,
					"patching_rect" : [ 622.0, 1314.20681057870388, 150.0, 47.0 ],
					"text" : "List of values is send to various places in the modulator patch. "
				}

			}
, 			{
				"box" : 				{
					"id" : "obj-135",
					"linecount" : 7,
					"maxclass" : "comment",
					"numinlets" : 1,
					"numoutlets" : 0,
					"patching_rect" : [ 1274.13087409734726, 80.50069010734569, 197.0, 100.0 ],
					"text" : "Visualizing all the continuous data. Normalizing to a bipolar range and smoothing via leaky integrator also happens here. LInear acceleration and angular velocity values are also summed up and send to the patching object."
				}

			}
, 			{
				"box" : 				{
					"id" : "obj-133",
					"linecount" : 2,
					"maxclass" : "comment",
					"numinlets" : 1,
					"numoutlets" : 0,
					"patching_rect" : [ 240.0, 518.535479447813259, 150.0, 33.0 ],
					"text" : "visualizing absolute orientation via quaternions"
				}

			}
, 			{
				"box" : 				{
					"id" : "obj-131",
					"linecount" : 2,
					"maxclass" : "comment",
					"numinlets" : 1,
					"numoutlets" : 0,
					"patching_rect" : [ 274.101040406227185, -60.000021576881409, 150.0, 33.0 ],
					"text" : "receiving osc packets via wifi and routing data types"
				}

			}
, 			{
				"box" : 				{
					"id" : "obj-129",
					"maxclass" : "newobj",
					"numinlets" : 0,
					"numoutlets" : 1,
					"outlettype" : [ "" ],
					"patching_rect" : [ 29.274725514479968, 145.241399884223938, 65.0, 22.0 ],
					"text" : "r loadbang"
				}

			}
, 			{
				"box" : 				{
					"id" : "obj-128",
					"linecount" : 3,
					"maxclass" : "comment",
					"numinlets" : 1,
					"numoutlets" : 0,
					"patching_rect" : [ 257.132461984044085, 325.241399884223938, 151.0, 47.0 ],
					"text" : "Switching between sensor data types and monitoring them for diagnostics"
				}

			}
, 			{
				"box" : 				{
					"color" : [ 0.956862745098039, 1.0, 0.0, 1.0 ],
					"id" : "obj-126",
					"maxclass" : "newobj",
					"numinlets" : 1,
					"numoutlets" : 0,
					"patching_rect" : [ 1176.63087409734726, 481.0, 71.0, 22.0 ],
					"text" : "s gyro_sum"
				}

			}
, 			{
				"box" : 				{
					"color" : [ 0.956862745098039, 1.0, 0.0, 1.0 ],
					"id" : "obj-125",
					"maxclass" : "newobj",
					"numinlets" : 0,
					"numoutlets" : 1,
					"outlettype" : [ "" ],
					"patching_rect" : [ 767.0, 970.0, 69.0, 22.0 ],
					"text" : "r gyro_sum"
				}

			}
, 			{
				"box" : 				{
					"color" : [ 0.956862745098039, 1.0, 0.0, 1.0 ],
					"id" : "obj-113",
					"maxclass" : "newobj",
					"numinlets" : 0,
					"numoutlets" : 1,
					"outlettype" : [ "" ],
					"patching_rect" : [ 712.116898450851522, 970.0, 52.0, 22.0 ],
					"text" : "r gyro_z"
				}

			}
, 			{
				"box" : 				{
					"color" : [ 0.956862745098039, 1.0, 0.0, 1.0 ],
					"id" : "obj-114",
					"maxclass" : "newobj",
					"numinlets" : 0,
					"numoutlets" : 1,
					"outlettype" : [ "" ],
					"patching_rect" : [ 656.740002622604379, 970.0, 52.0, 22.0 ],
					"text" : "r gyro_y"
				}

			}
, 			{
				"box" : 				{
					"color" : [ 0.956862745098039, 1.0, 0.0, 1.0 ],
					"id" : "obj-115",
					"maxclass" : "newobj",
					"numinlets" : 0,
					"numoutlets" : 1,
					"outlettype" : [ "" ],
					"patching_rect" : [ 781.0, 935.833355888183632, 92.0, 22.0 ],
					"text" : "r lin_accel_sum"
				}

			}
, 			{
				"box" : 				{
					"color" : [ 0.956862745098039, 1.0, 0.0, 1.0 ],
					"id" : "obj-116",
					"maxclass" : "newobj",
					"numinlets" : 0,
					"numoutlets" : 1,
					"outlettype" : [ "" ],
					"patching_rect" : [ 701.376895828247143, 935.833355888183632, 75.0, 22.0 ],
					"text" : "r lin_accel_z"
				}

			}
, 			{
				"box" : 				{
					"color" : [ 0.956862745098039, 1.0, 0.0, 1.0 ],
					"id" : "obj-117",
					"maxclass" : "newobj",
					"numinlets" : 0,
					"numoutlets" : 1,
					"outlettype" : [ "" ],
					"patching_rect" : [ 622.0, 935.833355888183632, 75.0, 22.0 ],
					"text" : "r lin_accel_y"
				}

			}
, 			{
				"box" : 				{
					"color" : [ 0.956862745098039, 1.0, 0.0, 1.0 ],
					"id" : "obj-118",
					"maxclass" : "newobj",
					"numinlets" : 0,
					"numoutlets" : 1,
					"outlettype" : [ "" ],
					"patching_rect" : [ 688.454288336890158, 905.357139587402344, 66.0, 22.0 ],
					"text" : "r quat_real"
				}

			}
, 			{
				"box" : 				{
					"color" : [ 0.956862745098039, 1.0, 0.0, 1.0 ],
					"id" : "obj-119",
					"maxclass" : "newobj",
					"numinlets" : 0,
					"numoutlets" : 1,
					"outlettype" : [ "" ],
					"patching_rect" : [ 631.740002622604379, 905.357139587402344, 52.0, 22.0 ],
					"text" : "r quat_k"
				}

			}
, 			{
				"box" : 				{
					"color" : [ 0.956862745098039, 1.0, 0.0, 1.0 ],
					"id" : "obj-120",
					"maxclass" : "newobj",
					"numinlets" : 0,
					"numoutlets" : 1,
					"outlettype" : [ "" ],
					"patching_rect" : [ 576.740002622604379, 905.357139587402344, 49.0, 22.0 ],
					"text" : "r quat_j"
				}

			}
, 			{
				"box" : 				{
					"color" : [ 0.956862745098039, 1.0, 0.0, 1.0 ],
					"id" : "obj-121",
					"maxclass" : "newobj",
					"numinlets" : 0,
					"numoutlets" : 1,
					"outlettype" : [ "" ],
					"patching_rect" : [ 601.5, 969.999311203956495, 52.0, 22.0 ],
					"text" : "r gyro_x"
				}

			}
, 			{
				"box" : 				{
					"color" : [ 0.956862745098039, 1.0, 0.0, 1.0 ],
					"id" : "obj-122",
					"maxclass" : "newobj",
					"numinlets" : 0,
					"numoutlets" : 1,
					"outlettype" : [ "" ],
					"patching_rect" : [ 541.5, 935.833355888183632, 75.0, 22.0 ],
					"text" : "r lin_accel_x"
				}

			}
, 			{
				"box" : 				{
					"color" : [ 0.956862745098039, 1.0, 0.0, 1.0 ],
					"id" : "obj-123",
					"maxclass" : "newobj",
					"numinlets" : 0,
					"numoutlets" : 1,
					"outlettype" : [ "" ],
					"patching_rect" : [ 518.240002622604379, 905.357139587402344, 49.0, 22.0 ],
					"text" : "r quat_i"
				}

			}
, 			{
				"box" : 				{
					"color" : [ 0.956862745098039, 1.0, 0.0, 1.0 ],
					"id" : "obj-112",
					"maxclass" : "newobj",
					"numinlets" : 1,
					"numoutlets" : 0,
					"patching_rect" : [ 1317.13087409734726, 421.0, 54.0, 22.0 ],
					"text" : "s gyro_z"
				}

			}
, 			{
				"box" : 				{
					"color" : [ 0.956862745098039, 1.0, 0.0, 1.0 ],
					"id" : "obj-110",
					"maxclass" : "newobj",
					"numinlets" : 1,
					"numoutlets" : 0,
					"patching_rect" : [ 1245.13087409734726, 445.0, 54.0, 22.0 ],
					"text" : "s gyro_y"
				}

			}
, 			{
				"box" : 				{
					"color" : [ 0.956862745098039, 1.0, 0.0, 1.0 ],
					"id" : "obj-109",
					"maxclass" : "newobj",
					"numinlets" : 1,
					"numoutlets" : 0,
					"patching_rect" : [ 920.023806980678273, 468.0, 94.0, 22.0 ],
					"text" : "s lin_accel_sum"
				}

			}
, 			{
				"box" : 				{
					"color" : [ 0.956862745098039, 1.0, 0.0, 1.0 ],
					"id" : "obj-108",
					"maxclass" : "newobj",
					"numinlets" : 1,
					"numoutlets" : 0,
					"patching_rect" : [ 1043.357142857143117, 413.0, 77.0, 22.0 ],
					"text" : "s lin_accel_z"
				}

			}
, 			{
				"box" : 				{
					"color" : [ 0.956862745098039, 1.0, 0.0, 1.0 ],
					"id" : "obj-107",
					"maxclass" : "newobj",
					"numinlets" : 1,
					"numoutlets" : 0,
					"patching_rect" : [ 965.08341161693852, 438.0, 77.0, 22.0 ],
					"text" : "s lin_accel_y"
				}

			}
, 			{
				"box" : 				{
					"color" : [ 0.956862745098039, 1.0, 0.0, 1.0 ],
					"id" : "obj-106",
					"maxclass" : "newobj",
					"numinlets" : 1,
					"numoutlets" : 0,
					"patching_rect" : [ 732.273731240204597, 447.0, 68.0, 22.0 ],
					"text" : "s quat_real"
				}

			}
, 			{
				"box" : 				{
					"color" : [ 0.956862745098039, 1.0, 0.0, 1.0 ],
					"id" : "obj-105",
					"maxclass" : "newobj",
					"numinlets" : 1,
					"numoutlets" : 0,
					"patching_rect" : [ 732.273731240204597, 423.0, 54.0, 22.0 ],
					"text" : "s quat_k"
				}

			}
, 			{
				"box" : 				{
					"color" : [ 0.956862745098039, 1.0, 0.0, 1.0 ],
					"id" : "obj-104",
					"maxclass" : "newobj",
					"numinlets" : 1,
					"numoutlets" : 0,
					"patching_rect" : [ 677.059445525918818, 447.0, 51.0, 22.0 ],
					"text" : "s quat_j"
				}

			}
, 			{
				"box" : 				{
					"id" : "obj-103",
					"maxclass" : "newobj",
					"numinlets" : 0,
					"numoutlets" : 1,
					"outlettype" : [ "" ],
					"patching_rect" : [ 866.13087409734726, 759.0, 65.0, 22.0 ],
					"text" : "r loadbang"
				}

			}
, 			{
				"box" : 				{
					"color" : [ 0.956862745098039, 1.0, 0.0, 1.0 ],
					"id" : "obj-80",
					"maxclass" : "newobj",
					"numinlets" : 0,
					"numoutlets" : 1,
					"outlettype" : [ "" ],
					"patching_rect" : [ 384.511778433209429, 72.999311203956552, 45.0, 22.0 ],
					"text" : "r steps"
				}

			}
, 			{
				"box" : 				{
					"color" : [ 0.956862745098039, 1.0, 0.0, 1.0 ],
					"id" : "obj-81",
					"maxclass" : "newobj",
					"numinlets" : 0,
					"numoutlets" : 1,
					"outlettype" : [ "" ],
					"patching_rect" : [ 323.311085703259323, 72.999311203956552, 53.0, 22.0 ],
					"text" : "r activity"
				}

			}
, 			{
				"box" : 				{
					"color" : [ 0.956862745098039, 1.0, 0.0, 1.0 ],
					"id" : "obj-99",
					"maxclass" : "newobj",
					"numinlets" : 0,
					"numoutlets" : 1,
					"outlettype" : [ "" ],
					"patching_rect" : [ 257.132461984044085, 72.999311203956552, 56.0, 22.0 ],
					"text" : "r stability"
				}

			}
, 			{
				"box" : 				{
					"color" : [ 0.956862745098039, 1.0, 0.0, 1.0 ],
					"id" : "obj-100",
					"maxclass" : "newobj",
					"numinlets" : 0,
					"numoutlets" : 1,
					"outlettype" : [ "" ],
					"patching_rect" : [ 209.515563533192534, 72.999311203956552, 39.0, 22.0 ],
					"text" : "r gyro"
				}

			}
, 			{
				"box" : 				{
					"color" : [ 0.956862745098039, 1.0, 0.0, 1.0 ],
					"id" : "obj-101",
					"maxclass" : "newobj",
					"numinlets" : 0,
					"numoutlets" : 1,
					"outlettype" : [ "" ],
					"patching_rect" : [ 138.824870803242646, 72.999311203956552, 63.0, 22.0 ],
					"text" : "r lin_accel"
				}

			}
, 			{
				"box" : 				{
					"color" : [ 0.956862745098039, 1.0, 0.0, 1.0 ],
					"id" : "obj-102",
					"maxclass" : "newobj",
					"numinlets" : 0,
					"numoutlets" : 1,
					"outlettype" : [ "" ],
					"patching_rect" : [ 90.551425511723409, 73.000001311302185, 39.0, 22.0 ],
					"text" : "r quat"
				}

			}
, 			{
				"box" : 				{
					"color" : [ 0.956862745098039, 1.0, 0.0, 1.0 ],
					"id" : "obj-68",
					"maxclass" : "newobj",
					"numinlets" : 1,
					"numoutlets" : 0,
					"patching_rect" : [ 1245.13087409734726, 421.0, 54.0, 22.0 ],
					"text" : "s gyro_x"
				}

			}
, 			{
				"box" : 				{
					"color" : [ 0.956862745098039, 1.0, 0.0, 1.0 ],
					"id" : "obj-70",
					"maxclass" : "newobj",
					"numinlets" : 1,
					"numoutlets" : 0,
					"patching_rect" : [ 965.08341161693852, 413.0, 77.0, 22.0 ],
					"text" : "s lin_accel_x"
				}

			}
, 			{
				"box" : 				{
					"color" : [ 0.956862745098039, 1.0, 0.0, 1.0 ],
					"id" : "obj-76",
					"maxclass" : "newobj",
					"numinlets" : 1,
					"numoutlets" : 0,
					"patching_rect" : [ 677.059445525918818, 423.0, 51.0, 22.0 ],
					"text" : "s quat_i"
				}

			}
, 			{
				"box" : 				{
					"color" : [ 0.956862745098039, 1.0, 0.0, 1.0 ],
					"id" : "obj-79",
					"maxclass" : "newobj",
					"numinlets" : 0,
					"numoutlets" : 1,
					"outlettype" : [ "" ],
					"patching_rect" : [ 30.0, 506.794768359632826, 61.0, 22.0 ],
					"text" : "r quat_viz"
				}

			}
, 			{
				"box" : 				{
					"color" : [ 0.956862745098039, 1.0, 0.0, 1.0 ],
					"id" : "obj-42",
					"maxclass" : "newobj",
					"numinlets" : 0,
					"numoutlets" : 1,
					"outlettype" : [ "" ],
					"patching_rect" : [ 842.0, 1025.963206171989441, 45.0, 22.0 ],
					"text" : "r steps"
				}

			}
, 			{
				"box" : 				{
					"color" : [ 0.956862745098039, 1.0, 0.0, 1.0 ],
					"id" : "obj-43",
					"maxclass" : "newobj",
					"numinlets" : 0,
					"numoutlets" : 1,
					"outlettype" : [ "" ],
					"patching_rect" : [ 780.799307270049894, 1025.963206171989441, 53.0, 22.0 ],
					"text" : "r activity"
				}

			}
, 			{
				"box" : 				{
					"color" : [ 0.956862745098039, 1.0, 0.0, 1.0 ],
					"id" : "obj-45",
					"maxclass" : "newobj",
					"numinlets" : 0,
					"numoutlets" : 1,
					"outlettype" : [ "" ],
					"patching_rect" : [ 714.620683550834656, 1025.963206171989441, 56.0, 22.0 ],
					"text" : "r stability"
				}

			}
, 			{
				"box" : 				{
					"color" : [ 0.956862745098039, 1.0, 0.0, 1.0 ],
					"id" : "obj-50",
					"maxclass" : "newobj",
					"numinlets" : 0,
					"numoutlets" : 1,
					"outlettype" : [ "" ],
					"patching_rect" : [ 1176.63087409734726, 40.00069010734569, 39.0, 22.0 ],
					"text" : "r gyro"
				}

			}
, 			{
				"box" : 				{
					"color" : [ 0.956862745098039, 1.0, 0.0, 1.0 ],
					"id" : "obj-59",
					"maxclass" : "newobj",
					"numinlets" : 0,
					"numoutlets" : 1,
					"outlettype" : [ "" ],
					"patching_rect" : [ 920.023806980678273, 33.801348124742503, 63.0, 22.0 ],
					"text" : "r lin_accel"
				}

			}
, 			{
				"box" : 				{
					"color" : [ 0.956862745098039, 1.0, 0.0, 1.0 ],
					"id" : "obj-62",
					"maxclass" : "newobj",
					"numinlets" : 0,
					"numoutlets" : 1,
					"outlettype" : [ "" ],
					"patching_rect" : [ 697.13087409734726, 33.801348124742503, 39.0, 22.0 ],
					"text" : "r quat"
				}

			}
, 			{
				"box" : 				{
					"color" : [ 0.956862745098039, 1.0, 0.0, 1.0 ],
					"id" : "obj-39",
					"maxclass" : "newobj",
					"numinlets" : 1,
					"numoutlets" : 0,
					"patching_rect" : [ 377.101040406227185, 35.969288315772985, 47.0, 22.0 ],
					"text" : "s steps"
				}

			}
, 			{
				"box" : 				{
					"color" : [ 0.956862745098039, 1.0, 0.0, 1.0 ],
					"id" : "obj-38",
					"maxclass" : "newobj",
					"numinlets" : 1,
					"numoutlets" : 0,
					"patching_rect" : [ 315.900347676277079, 35.969288315772985, 55.0, 22.0 ],
					"text" : "s activity"
				}

			}
, 			{
				"box" : 				{
					"color" : [ 0.956862745098039, 1.0, 0.0, 1.0 ],
					"id" : "obj-33",
					"maxclass" : "newobj",
					"numinlets" : 1,
					"numoutlets" : 0,
					"patching_rect" : [ 249.72172395706184, 35.969288315772985, 58.0, 22.0 ],
					"text" : "s stability"
				}

			}
, 			{
				"box" : 				{
					"color" : [ 0.956862745098039, 1.0, 0.0, 1.0 ],
					"id" : "obj-31",
					"maxclass" : "newobj",
					"numinlets" : 1,
					"numoutlets" : 0,
					"patching_rect" : [ 202.104825506210318, 35.969288315772985, 41.0, 22.0 ],
					"text" : "s gyro"
				}

			}
, 			{
				"box" : 				{
					"color" : [ 0.956862745098039, 1.0, 0.0, 1.0 ],
					"id" : "obj-29",
					"maxclass" : "newobj",
					"numinlets" : 1,
					"numoutlets" : 0,
					"patching_rect" : [ 131.414132776260431, 35.969288315772985, 65.0, 22.0 ],
					"text" : "s lin_accel"
				}

			}
, 			{
				"box" : 				{
					"color" : [ 0.956862745098039, 1.0, 0.0, 1.0 ],
					"id" : "obj-21",
					"maxclass" : "newobj",
					"numinlets" : 1,
					"numoutlets" : 0,
					"patching_rect" : [ 83.140687484741193, 35.969978423118619, 41.0, 22.0 ],
					"text" : "s quat"
				}

			}
, 			{
				"box" : 				{
					"color" : [ 0.956862745098039, 1.0, 0.0, 1.0 ],
					"id" : "obj-16",
					"maxclass" : "newobj",
					"numinlets" : 1,
					"numoutlets" : 0,
					"patching_rect" : [ 15.0, 35.969978423118619, 63.0, 22.0 ],
					"text" : "s quat_viz"
				}

			}
, 			{
				"box" : 				{
					"id" : "obj-15",
					"linecount" : 12,
					"maxclass" : "comment",
					"numinlets" : 1,
					"numoutlets" : 0,
					"patching_rect" : [ 395.0, 1129.5, 158.0, 167.0 ],
					"presentation" : 1,
					"presentation_linecount" : 12,
					"presentation_rect" : [ 246.0, 244.0, 112.0, 167.0 ],
					"text" : "1 - Quat I\n2 - Quat J\n3 - Quat K\n4 - Quat Real\n5 - Lin Accel X\n6 - Lin Accel Y\n7 - Lin Accel Z\n8 - Lin Accel Sum\n9 - Ang Velo X\n10 - Ang Velo Y\n11 - Ang Velo Z\n12 - Ang Velo Sum"
				}

			}
, 			{
				"box" : 				{
					"id" : "obj-8",
					"maxclass" : "newobj",
					"numinlets" : 1,
					"numoutlets" : 1,
					"outlettype" : [ "float" ],
					"patching_rect" : [ 1323.63087409734726, 357.0, 41.0, 22.0 ],
					"text" : "abs 0."
				}

			}
, 			{
				"box" : 				{
					"id" : "obj-9",
					"maxclass" : "newobj",
					"numinlets" : 1,
					"numoutlets" : 1,
					"outlettype" : [ "float" ],
					"patching_rect" : [ 1251.63087409734726, 357.0, 41.0, 22.0 ],
					"text" : "abs 0."
				}

			}
, 			{
				"box" : 				{
					"id" : "obj-10",
					"maxclass" : "newobj",
					"numinlets" : 1,
					"numoutlets" : 1,
					"outlettype" : [ "float" ],
					"patching_rect" : [ 1176.63087409734726, 357.0, 41.0, 22.0 ],
					"text" : "abs 0."
				}

			}
, 			{
				"box" : 				{
					"id" : "obj-14",
					"maxclass" : "newobj",
					"numinlets" : 2,
					"numoutlets" : 1,
					"outlettype" : [ "float" ],
					"patching_rect" : [ 1176.63087409734726, 421.0, 29.5, 22.0 ],
					"text" : "+ 0."
				}

			}
, 			{
				"box" : 				{
					"id" : "obj-74",
					"maxclass" : "newobj",
					"numinlets" : 1,
					"numoutlets" : 1,
					"outlettype" : [ "float" ],
					"patching_rect" : [ 1062.857142857143117, 357.0, 41.0, 22.0 ],
					"text" : "abs 0."
				}

			}
, 			{
				"box" : 				{
					"id" : "obj-5",
					"maxclass" : "newobj",
					"numinlets" : 1,
					"numoutlets" : 1,
					"outlettype" : [ "float" ],
					"patching_rect" : [ 992.023806980678273, 357.0, 41.0, 22.0 ],
					"text" : "abs 0."
				}

			}
, 			{
				"box" : 				{
					"id" : "obj-69",
					"maxclass" : "newobj",
					"numinlets" : 1,
					"numoutlets" : 1,
					"outlettype" : [ "float" ],
					"patching_rect" : [ 920.023806980678273, 357.0, 41.0, 22.0 ],
					"text" : "abs 0."
				}

			}
, 			{
				"box" : 				{
					"id" : "obj-7",
					"maxclass" : "newobj",
					"numinlets" : 2,
					"numoutlets" : 1,
					"outlettype" : [ "float" ],
					"patching_rect" : [ 920.023806980678273, 423.0, 29.5, 22.0 ],
					"text" : "+ 0."
				}

			}
, 			{
				"box" : 				{
					"id" : "obj-13",
					"maxclass" : "newobj",
					"numinlets" : 12,
					"numoutlets" : 1,
					"outlettype" : [ "" ],
					"patching_rect" : [ 555.0, 1030.0, 134.5, 22.0 ],
					"text" : "pak f f f f f f f f f f f f"
				}

			}
, 			{
				"box" : 				{
					"args" : [ 4, 4 ],
					"bgcolor" : [ 0.6, 0.6, 0.6, 1.0 ],
					"bgmode" : 2,
					"border" : 1,
					"clickthrough" : 0,
					"enablehscroll" : 0,
					"enablevscroll" : 0,
					"id" : "obj-111",
					"lockeddragscroll" : 0,
					"lockedsize" : 0,
					"maxclass" : "bpatcher",
					"name" : "mo.crosspatch.maxpat",
					"numinlets" : 2,
					"numoutlets" : 1,
					"offset" : [ 0.0, 0.0 ],
					"outlettype" : [ "" ],
					"patching_rect" : [ 555.0, 1065.0, 214.0, 238.0 ],
					"presentation" : 1,
					"presentation_rect" : [ 360.0, 180.0, 214.0, 238.0 ],
					"varname" : "mo.crosspatch",
					"viewvisibility" : 1
				}

			}
, 			{
				"box" : 				{
					"color" : [ 0.956862745098039, 1.0, 0.0, 1.0 ],
					"id" : "obj-19",
					"maxclass" : "newobj",
					"numinlets" : 1,
					"numoutlets" : 0,
					"patching_rect" : [ 555.0, 1314.20681057870388, 54.0, 22.0 ],
					"text" : "s motion"
				}

			}
, 			{
				"box" : 				{
					"id" : "obj-82",
					"maxclass" : "message",
					"numinlets" : 2,
					"numoutlets" : 1,
					"outlettype" : [ "" ],
					"patching_rect" : [ 979.13087409734726, 789.963206171989441, 39.0, 22.0 ],
					"text" : "set W"
				}

			}
, 			{
				"box" : 				{
					"id" : "obj-51",
					"maxclass" : "message",
					"numinlets" : 2,
					"numoutlets" : 1,
					"outlettype" : [ "" ],
					"patching_rect" : [ 942.13087409734726, 789.963206171989441, 35.0, 22.0 ],
					"text" : "set Z"
				}

			}
, 			{
				"box" : 				{
					"id" : "obj-49",
					"maxclass" : "message",
					"numinlets" : 2,
					"numoutlets" : 1,
					"outlettype" : [ "" ],
					"patching_rect" : [ 904.13087409734726, 789.963206171989441, 36.0, 22.0 ],
					"text" : "set Y"
				}

			}
, 			{
				"box" : 				{
					"id" : "obj-47",
					"maxclass" : "message",
					"numinlets" : 2,
					"numoutlets" : 1,
					"outlettype" : [ "" ],
					"patching_rect" : [ 866.13087409734726, 789.963206171989441, 36.0, 22.0 ],
					"text" : "set X"
				}

			}
, 			{
				"box" : 				{
					"id" : "obj-11",
					"linecount" : 6,
					"maxclass" : "comment",
					"numinlets" : 1,
					"numoutlets" : 0,
					"patching_rect" : [ 777.14285714285711, 1163.0, 248.0, 100.0 ],
					"presentation" : 1,
					"presentation_linecount" : 6,
					"presentation_rect" : [ 579.14285714285711, 264.0, 153.012310794421637, 100.0 ],
					"text" : "1 - N-Mod\n2 - Sub-harm gain\n3 - Sub-harm cutoff freq\n4 - Sub-harm interpol time\n5 - Noise injection amp\n6 - Noise injection smooth\n"
				}

			}
, 			{
				"box" : 				{
					"bgmode" : 0,
					"border" : 1,
					"clickthrough" : 0,
					"enablehscroll" : 0,
					"enablevscroll" : 0,
					"id" : "obj-72",
					"lockeddragscroll" : 0,
					"lockedsize" : 0,
					"maxclass" : "bpatcher",
					"name" : "mo.smooth.maxpat",
					"numinlets" : 2,
					"numoutlets" : 1,
					"offset" : [ 0.0, 0.0 ],
					"outlettype" : [ "" ],
					"patching_rect" : [ 1176.63087409734726, 104.203502463018822, 70.0, 62.0 ],
					"varname" : "mo.scale",
					"viewvisibility" : 1
				}

			}
, 			{
				"box" : 				{
					"id" : "obj-86",
					"maxclass" : "newobj",
					"numinlets" : 6,
					"numoutlets" : 1,
					"outlettype" : [ "" ],
					"patching_rect" : [ 1062.857142857143117, 286.0, 98.0, 22.0 ],
					"text" : "scale -7. 7. -1. 1."
				}

			}
, 			{
				"box" : 				{
					"id" : "obj-85",
					"maxclass" : "newobj",
					"numinlets" : 6,
					"numoutlets" : 1,
					"outlettype" : [ "" ],
					"patching_rect" : [ 993.13087409734726, 256.0, 98.0, 22.0 ],
					"text" : "scale -7. 7. -1. 1."
				}

			}
, 			{
				"box" : 				{
					"id" : "obj-84",
					"maxclass" : "newobj",
					"numinlets" : 6,
					"numoutlets" : 1,
					"outlettype" : [ "" ],
					"patching_rect" : [ 920.023806980678273, 228.166644111816368, 98.0, 22.0 ],
					"text" : "scale -7. 7. -1. 1."
				}

			}
, 			{
				"box" : 				{
					"id" : "obj-73",
					"maxclass" : "newobj",
					"numinlets" : 2,
					"numoutlets" : 2,
					"outlettype" : [ "", "" ],
					"patching_rect" : [ 920.023806980678273, 66.801348124742503, 55.0, 22.0 ],
					"text" : "zl ecils 1"
				}

			}
, 			{
				"box" : 				{
					"id" : "obj-75",
					"maxclass" : "newobj",
					"numinlets" : 1,
					"numoutlets" : 3,
					"outlettype" : [ "float", "float", "float" ],
					"patching_rect" : [ 920.023806980678273, 172.00069010734569, 67.0, 22.0 ],
					"text" : "unpack f f f"
				}

			}
, 			{
				"box" : 				{
					"id" : "obj-22",
					"maxclass" : "newobj",
					"numinlets" : 6,
					"numoutlets" : 1,
					"outlettype" : [ "" ],
					"patching_rect" : [ 1323.63087409734726, 286.0, 98.0, 22.0 ],
					"text" : "scale -5. 5. -1. 1."
				}

			}
, 			{
				"box" : 				{
					"id" : "obj-18",
					"maxclass" : "newobj",
					"numinlets" : 6,
					"numoutlets" : 1,
					"outlettype" : [ "" ],
					"patching_rect" : [ 1251.63087409734726, 256.0, 98.0, 22.0 ],
					"text" : "scale -5. 5. -1. 1."
				}

			}
, 			{
				"box" : 				{
					"fontface" : 0,
					"fontsize" : 12.0,
					"id" : "obj-60",
					"maxclass" : "comment",
					"numinlets" : 1,
					"numoutlets" : 0,
					"patching_rect" : [ 648.0, 578.0, 214.0, 20.0 ],
					"presentation" : 1,
					"presentation_rect" : [ 231.0, 13.0, 214.0, 20.0 ],
					"text" : "Absolute Orientation",
					"textjustification" : 1
				}

			}
, 			{
				"box" : 				{
					"fontface" : 0,
					"fontsize" : 12.0,
					"id" : "obj-58",
					"maxclass" : "comment",
					"numinlets" : 1,
					"numoutlets" : 0,
					"patching_rect" : [ 1252.13087409734726, 578.0, 142.0, 20.0 ],
					"presentation" : 1,
					"presentation_rect" : [ 591.0, 13.0, 142.0, 20.0 ],
					"text" : "Angular Velocity",
					"textjustification" : 1
				}

			}
, 			{
				"box" : 				{
					"bgcolor" : [ 0.6, 0.6, 0.6, 1.0 ],
					"bgmode" : 2,
					"border" : 1,
					"clickthrough" : 0,
					"enablehscroll" : 0,
					"enablevscroll" : 0,
					"id" : "obj-52",
					"lockeddragscroll" : 0,
					"lockedsize" : 0,
					"maxclass" : "bpatcher",
					"name" : "mo.vslider.maxpat",
					"numinlets" : 2,
					"numoutlets" : 1,
					"offset" : [ 0.0, 0.0 ],
					"outlettype" : [ "" ],
					"patching_rect" : [ 1324.13087409734726, 600.0, 70.0, 214.0 ],
					"presentation" : 1,
					"presentation_rect" : [ 663.0, 35.0, 70.0, 214.0 ],
					"varname" : "mo.vslider[4]",
					"viewvisibility" : 1
				}

			}
, 			{
				"box" : 				{
					"bgcolor" : [ 0.6, 0.6, 0.6, 1.0 ],
					"bgmode" : 2,
					"border" : 1,
					"clickthrough" : 0,
					"enablehscroll" : 0,
					"enablevscroll" : 0,
					"id" : "obj-53",
					"lockeddragscroll" : 0,
					"lockedsize" : 0,
					"maxclass" : "bpatcher",
					"name" : "mo.vslider.maxpat",
					"numinlets" : 2,
					"numoutlets" : 1,
					"offset" : [ 0.0, 0.0 ],
					"outlettype" : [ "" ],
					"patching_rect" : [ 1252.13087409734726, 600.0, 70.0, 214.0 ],
					"presentation" : 1,
					"presentation_rect" : [ 591.0, 35.0, 70.0, 214.0 ],
					"varname" : "mo.vslider[5]",
					"viewvisibility" : 1
				}

			}
, 			{
				"box" : 				{
					"bgcolor" : [ 0.6, 0.6, 0.6, 1.0 ],
					"bgmode" : 2,
					"border" : 1,
					"clickthrough" : 0,
					"enablehscroll" : 0,
					"enablevscroll" : 0,
					"id" : "obj-54",
					"lockeddragscroll" : 0,
					"lockedsize" : 0,
					"maxclass" : "bpatcher",
					"name" : "mo.hslider.maxpat",
					"numinlets" : 2,
					"numoutlets" : 1,
					"offset" : [ 0.0, 0.0 ],
					"outlettype" : [ "" ],
					"patching_rect" : [ 1324.13087409734726, 672.0, 214.0, 70.0 ],
					"presentation" : 1,
					"presentation_rect" : [ 663.0, 107.0, 214.0, 70.0 ],
					"varname" : "mo.hslider[2]",
					"viewvisibility" : 1
				}

			}
, 			{
				"box" : 				{
					"bgcolor" : [ 0.6, 0.6, 0.6, 1.0 ],
					"bgmode" : 2,
					"border" : 1,
					"clickthrough" : 0,
					"enablehscroll" : 0,
					"enablevscroll" : 0,
					"id" : "obj-48",
					"lockeddragscroll" : 0,
					"lockedsize" : 0,
					"maxclass" : "bpatcher",
					"name" : "mo.hslider.maxpat",
					"numinlets" : 2,
					"numoutlets" : 1,
					"offset" : [ 0.0, 0.0 ],
					"outlettype" : [ "" ],
					"patching_rect" : [ 792.0, 601.0, 214.0, 70.0 ],
					"presentation" : 1,
					"presentation_rect" : [ 375.0, 35.0, 214.0, 70.0 ],
					"varname" : "mo.hslider[1]",
					"viewvisibility" : 1
				}

			}
, 			{
				"box" : 				{
					"bgcolor" : [ 0.6, 0.6, 0.6, 1.0 ],
					"bgmode" : 2,
					"border" : 1,
					"clickthrough" : 0,
					"enablehscroll" : 0,
					"enablevscroll" : 0,
					"id" : "obj-46",
					"lockeddragscroll" : 0,
					"lockedsize" : 0,
					"maxclass" : "bpatcher",
					"name" : "mo.vslider.maxpat",
					"numinlets" : 2,
					"numoutlets" : 1,
					"offset" : [ 0.0, 0.0 ],
					"outlettype" : [ "" ],
					"patching_rect" : [ 574.0, 601.0, 70.0, 214.0 ],
					"presentation" : 1,
					"presentation_rect" : [ 303.0, 35.0, 70.0, 214.0 ],
					"varname" : "mo.vslider[3]",
					"viewvisibility" : 1
				}

			}
, 			{
				"box" : 				{
					"id" : "obj-98",
					"maxclass" : "newobj",
					"numinlets" : 1,
					"numoutlets" : 1,
					"outlettype" : [ "" ],
					"patching_rect" : [ 29.274725514479968, 240.098539471626225, 85.0, 22.0 ],
					"text" : "prepend items"
				}

			}
, 			{
				"box" : 				{
					"id" : "obj-97",
					"linecount" : 3,
					"maxclass" : "message",
					"numinlets" : 2,
					"numoutlets" : 1,
					"outlettype" : [ "" ],
					"patching_rect" : [ 29.274725514479968, 187.241399884223881, 189.0, 49.0 ],
					"text" : "Quaternions Linear_Acceleration Angular_Velocity Stability_Class Activity_Class Step_Counter"
				}

			}
, 			{
				"box" : 				{
					"args" : [ 4 ],
					"bgcolor" : [ 0.6, 0.6, 0.6, 1.0 ],
					"bgmode" : 2,
					"border" : 1,
					"clickthrough" : 0,
					"enablehscroll" : 0,
					"enablevscroll" : 0,
					"id" : "obj-93",
					"lockeddragscroll" : 0,
					"lockedsize" : 0,
					"maxclass" : "bpatcher",
					"name" : "mo.tabs.maxpat",
					"numinlets" : 2,
					"numoutlets" : 2,
					"offset" : [ 0.0, 0.0 ],
					"outlettype" : [ "", "int" ],
					"patching_rect" : [ 29.274725514479968, 266.241399884223881, 214.0, 126.0 ],
					"presentation" : 1,
					"presentation_rect" : [ 15.0, 60.0, 214.0, 126.0 ],
					"varname" : "mo.tabs",
					"viewvisibility" : 1
				}

			}
, 			{
				"box" : 				{
					"id" : "obj-91",
					"maxclass" : "newobj",
					"numinlets" : 6,
					"numoutlets" : 1,
					"outlettype" : [ "" ],
					"patching_rect" : [ 1176.63087409734726, 223.202812355673132, 98.0, 22.0 ],
					"text" : "scale -5. 5. -1. 1."
				}

			}
, 			{
				"box" : 				{
					"id" : "obj-90",
					"maxclass" : "newobj",
					"numinlets" : 1,
					"numoutlets" : 3,
					"outlettype" : [ "float", "float", "float" ],
					"patching_rect" : [ 1176.63087409734726, 172.00069010734569, 67.0, 22.0 ],
					"text" : "unpack f f f"
				}

			}
, 			{
				"box" : 				{
					"fontface" : 0,
					"fontsize" : 12.0,
					"id" : "obj-89",
					"maxclass" : "comment",
					"numinlets" : 1,
					"numoutlets" : 0,
					"patching_rect" : [ 948.023806980677819, 579.0, 142.0, 20.0 ],
					"presentation" : 1,
					"presentation_rect" : [ 447.0, 13.0, 142.0, 20.0 ],
					"text" : "Linear Acceleration",
					"textjustification" : 1
				}

			}
, 			{
				"box" : 				{
					"bgcolor" : [ 0.6, 0.6, 0.6, 1.0 ],
					"bgmode" : 2,
					"border" : 1,
					"clickthrough" : 0,
					"enablehscroll" : 0,
					"enablevscroll" : 0,
					"id" : "obj-87",
					"lockeddragscroll" : 0,
					"lockedsize" : 0,
					"maxclass" : "bpatcher",
					"name" : "mo.vslider.maxpat",
					"numinlets" : 2,
					"numoutlets" : 1,
					"offset" : [ 0.0, 0.0 ],
					"outlettype" : [ "" ],
					"patching_rect" : [ 1020.023806980677819, 601.0, 70.0, 214.0 ],
					"presentation" : 1,
					"presentation_rect" : [ 519.0, 35.0, 70.0, 214.0 ],
					"varname" : "mo.vslider[2]",
					"viewvisibility" : 1
				}

			}
, 			{
				"box" : 				{
					"id" : "obj-77",
					"maxclass" : "newobj",
					"numinlets" : 1,
					"numoutlets" : 4,
					"outlettype" : [ "float", "float", "float", "float" ],
					"patching_rect" : [ 697.13087409734726, 172.00069010734569, 74.0, 22.0 ],
					"text" : "unpack f f f f"
				}

			}
, 			{
				"box" : 				{
					"bgcolor" : [ 0.6, 0.6, 0.6, 1.0 ],
					"bgmode" : 2,
					"border" : 1,
					"clickthrough" : 0,
					"enablehscroll" : 0,
					"enablevscroll" : 0,
					"id" : "obj-30",
					"lockeddragscroll" : 0,
					"lockedsize" : 0,
					"maxclass" : "bpatcher",
					"name" : "mo.vslider.maxpat",
					"numinlets" : 2,
					"numoutlets" : 1,
					"offset" : [ 0.0, 0.0 ],
					"outlettype" : [ "" ],
					"patching_rect" : [ 648.0, 601.0, 70.0, 214.0 ],
					"presentation" : 1,
					"presentation_rect" : [ 231.0, 35.0, 70.0, 214.0 ],
					"varname" : "mo.vslider[1]",
					"viewvisibility" : 1
				}

			}
, 			{
				"box" : 				{
					"bgcolor" : [ 0.6, 0.6, 0.6, 1.0 ],
					"bgmode" : 2,
					"border" : 1,
					"clickthrough" : 0,
					"enablehscroll" : 0,
					"enablevscroll" : 0,
					"id" : "obj-37",
					"lockeddragscroll" : 0,
					"lockedsize" : 0,
					"maxclass" : "bpatcher",
					"name" : "mo.hslider.maxpat",
					"numinlets" : 2,
					"numoutlets" : 1,
					"offset" : [ 0.0, 0.0 ],
					"outlettype" : [ "" ],
					"patching_rect" : [ 720.0, 673.0, 214.0, 70.0 ],
					"presentation" : 1,
					"presentation_rect" : [ 303.0, 107.0, 214.0, 70.0 ],
					"varname" : "mo.hslider[3]",
					"viewvisibility" : 1
				}

			}
, 			{
				"box" : 				{
					"bgcolor" : [ 0.6, 0.6, 0.6, 1.0 ],
					"bgmode" : 2,
					"border" : 1,
					"clickthrough" : 0,
					"enablehscroll" : 0,
					"enablevscroll" : 0,
					"id" : "obj-34",
					"lockeddragscroll" : 0,
					"lockedsize" : 0,
					"maxclass" : "bpatcher",
					"name" : "mo.vslider.maxpat",
					"numinlets" : 2,
					"numoutlets" : 1,
					"offset" : [ 0.0, 0.0 ],
					"outlettype" : [ "" ],
					"patching_rect" : [ 948.023806980677819, 601.0, 70.0, 214.0 ],
					"presentation" : 1,
					"presentation_rect" : [ 447.0, 35.0, 70.0, 214.0 ],
					"varname" : "mo.vslider",
					"viewvisibility" : 1
				}

			}
, 			{
				"box" : 				{
					"bgcolor" : [ 0.6, 0.6, 0.6, 1.0 ],
					"bgmode" : 2,
					"border" : 1,
					"clickthrough" : 0,
					"enablehscroll" : 0,
					"enablevscroll" : 0,
					"id" : "obj-3",
					"lockeddragscroll" : 0,
					"lockedsize" : 0,
					"maxclass" : "bpatcher",
					"name" : "mo.hslider.maxpat",
					"numinlets" : 2,
					"numoutlets" : 1,
					"offset" : [ 0.0, 0.0 ],
					"outlettype" : [ "" ],
					"patching_rect" : [ 1020.023806980677819, 673.0, 214.0, 70.0 ],
					"presentation" : 1,
					"presentation_rect" : [ 519.0, 107.0, 214.0, 70.0 ],
					"varname" : "mo.hslider",
					"viewvisibility" : 1
				}

			}
, 			{
				"box" : 				{
					"id" : "obj-32",
					"maxclass" : "newobj",
					"numinlets" : 2,
					"numoutlets" : 2,
					"outlettype" : [ "", "" ],
					"patching_rect" : [ 1176.63087409734726, 70.00069010734569, 55.0, 22.0 ],
					"text" : "zl ecils 1"
				}

			}
, 			{
				"box" : 				{
					"bgcolor" : [ 0.6, 0.6, 0.6, 1.0 ],
					"bgmode" : 2,
					"border" : 1,
					"clickthrough" : 0,
					"enablehscroll" : 0,
					"enablevscroll" : 0,
					"id" : "obj-12",
					"lockeddragscroll" : 0,
					"lockedsize" : 0,
					"maxclass" : "bpatcher",
					"name" : "mo.udpreceive.maxpat",
					"numinlets" : 1,
					"numoutlets" : 1,
					"offset" : [ 0.0, 0.0 ],
					"outlettype" : [ "" ],
					"patching_rect" : [ 15.0, -66.000021576881409, 214.0, 45.0 ],
					"presentation" : 1,
					"presentation_rect" : [ 15.0, 13.0, 214.0, 45.0 ],
					"varname" : "mo.udpreceive",
					"viewvisibility" : 1
				}

			}
, 			{
				"box" : 				{
					"fontname" : "Lato",
					"fontsize" : 13.0,
					"id" : "obj-23",
					"maxclass" : "newobj",
					"numinlets" : 7,
					"numoutlets" : 1,
					"outlettype" : [ "" ],
					"patching_rect" : [ 29.274725514479968, 105.0, 386.6601999834607, 24.0 ],
					"text" : "switch 6"
				}

			}
, 			{
				"box" : 				{
					"fontsize" : 13.0,
					"id" : "obj-36",
					"maxclass" : "newobj",
					"numinlets" : 1,
					"numoutlets" : 1,
					"outlettype" : [ "" ],
					"patching_rect" : [ 30.0, 537.036168243856764, 85.0, 23.0 ],
					"text" : "prepend quat"
				}

			}
, 			{
				"box" : 				{
					"fontname" : "Arial",
					"fontsize" : 13.0,
					"id" : "obj-20",
					"maxclass" : "newobj",
					"numinlets" : 9,
					"numoutlets" : 2,
					"outlettype" : [ "", "" ],
					"patching_rect" : [ 37.0, 600.0, 399.0, 23.0 ],
					"text" : "jit.gl.mesh @auto_colors 1 @draw_mode tri_grid @position 0 0 -2.5"
				}

			}
, 			{
				"box" : 				{
					"fontname" : "Arial",
					"fontsize" : 13.0,
					"id" : "obj-55",
					"maxclass" : "newobj",
					"numinlets" : 1,
					"numoutlets" : 2,
					"outlettype" : [ "jit_matrix", "" ],
					"patching_rect" : [ 149.0, 562.036145243856708, 276.0, 23.0 ],
					"text" : "jit.gl.gridshape @matrixoutput 1 @shape torus"
				}

			}
, 			{
				"box" : 				{
					"fontsize" : 13.0,
					"id" : "obj-35",
					"maxclass" : "newobj",
					"numinlets" : 8,
					"numoutlets" : 8,
					"outlettype" : [ "", "", "", "", "", "", "", "" ],
					"patching_rect" : [ 15.0, -12.000044465065002, 429.763016924858221, 23.0 ],
					"text" : "route /quat_viz /quat /lin_accel /gyro /stability /activity /steps"
				}

			}
, 			{
				"box" : 				{
					"enable" : 1,
					"fps" : 30.0,
					"id" : "obj-78",
					"maxclass" : "jit.pworld",
					"numinlets" : 1,
					"numoutlets" : 2,
					"outlettype" : [ "jit_matrix", "" ],
					"patching_rect" : [ 30.0, 630.036168243856764, 207.666671752929688, 187.0 ],
					"presentation" : 1,
					"presentation_rect" : [ 15.0, 255.0, 214.0, 163.0 ],
					"sync" : 1
				}

			}
 ],
		"lines" : [ 			{
				"patchline" : 				{
					"destination" : [ "obj-76", 0 ],
					"source" : [ "obj-1", 0 ]
				}

			}
, 			{
				"patchline" : 				{
					"destination" : [ "obj-14", 0 ],
					"source" : [ "obj-10", 0 ]
				}

			}
, 			{
				"patchline" : 				{
					"destination" : [ "obj-23", 3 ],
					"source" : [ "obj-100", 0 ]
				}

			}
, 			{
				"patchline" : 				{
					"destination" : [ "obj-23", 2 ],
					"source" : [ "obj-101", 0 ]
				}

			}
, 			{
				"patchline" : 				{
					"destination" : [ "obj-23", 1 ],
					"source" : [ "obj-102", 0 ]
				}

			}
, 			{
				"patchline" : 				{
					"destination" : [ "obj-47", 0 ],
					"order" : 3,
					"source" : [ "obj-103", 0 ]
				}

			}
, 			{
				"patchline" : 				{
					"destination" : [ "obj-49", 0 ],
					"order" : 2,
					"source" : [ "obj-103", 0 ]
				}

			}
, 			{
				"patchline" : 				{
					"destination" : [ "obj-51", 0 ],
					"order" : 1,
					"source" : [ "obj-103", 0 ]
				}

			}
, 			{
				"patchline" : 				{
					"destination" : [ "obj-82", 0 ],
					"order" : 0,
					"source" : [ "obj-103", 0 ]
				}

			}
, 			{
				"patchline" : 				{
					"destination" : [ "obj-19", 0 ],
					"source" : [ "obj-111", 0 ]
				}

			}
, 			{
				"patchline" : 				{
					"destination" : [ "obj-13", 10 ],
					"source" : [ "obj-113", 0 ]
				}

			}
, 			{
				"patchline" : 				{
					"destination" : [ "obj-13", 9 ],
					"source" : [ "obj-114", 0 ]
				}

			}
, 			{
				"patchline" : 				{
					"destination" : [ "obj-13", 7 ],
					"source" : [ "obj-115", 0 ]
				}

			}
, 			{
				"patchline" : 				{
					"destination" : [ "obj-13", 6 ],
					"source" : [ "obj-116", 0 ]
				}

			}
, 			{
				"patchline" : 				{
					"destination" : [ "obj-13", 5 ],
					"source" : [ "obj-117", 0 ]
				}

			}
, 			{
				"patchline" : 				{
					"destination" : [ "obj-13", 3 ],
					"source" : [ "obj-118", 0 ]
				}

			}
, 			{
				"patchline" : 				{
					"destination" : [ "obj-13", 2 ],
					"source" : [ "obj-119", 0 ]
				}

			}
, 			{
				"patchline" : 				{
					"destination" : [ "obj-35", 0 ],
					"order" : 1,
					"source" : [ "obj-12", 0 ]
				}

			}
, 			{
				"patchline" : 				{
					"destination" : [ "obj-44", 0 ],
					"order" : 0,
					"source" : [ "obj-12", 0 ]
				}

			}
, 			{
				"patchline" : 				{
					"destination" : [ "obj-13", 1 ],
					"source" : [ "obj-120", 0 ]
				}

			}
, 			{
				"patchline" : 				{
					"destination" : [ "obj-13", 8 ],
					"source" : [ "obj-121", 0 ]
				}

			}
, 			{
				"patchline" : 				{
					"destination" : [ "obj-13", 4 ],
					"source" : [ "obj-122", 0 ]
				}

			}
, 			{
				"patchline" : 				{
					"destination" : [ "obj-13", 0 ],
					"source" : [ "obj-123", 0 ]
				}

			}
, 			{
				"patchline" : 				{
					"destination" : [ "obj-13", 11 ],
					"source" : [ "obj-125", 0 ]
				}

			}
, 			{
				"patchline" : 				{
					"destination" : [ "obj-97", 0 ],
					"source" : [ "obj-129", 0 ]
				}

			}
, 			{
				"patchline" : 				{
					"destination" : [ "obj-111", 0 ],
					"source" : [ "obj-13", 0 ]
				}

			}
, 			{
				"patchline" : 				{
					"destination" : [ "obj-126", 0 ],
					"source" : [ "obj-14", 0 ]
				}

			}
, 			{
				"patchline" : 				{
					"destination" : [ "obj-104", 0 ],
					"source" : [ "obj-17", 0 ]
				}

			}
, 			{
				"patchline" : 				{
					"destination" : [ "obj-110", 0 ],
					"order" : 1,
					"source" : [ "obj-18", 0 ]
				}

			}
, 			{
				"patchline" : 				{
					"destination" : [ "obj-9", 0 ],
					"order" : 0,
					"source" : [ "obj-18", 0 ]
				}

			}
, 			{
				"patchline" : 				{
					"destination" : [ "obj-75", 0 ],
					"source" : [ "obj-2", 0 ]
				}

			}
, 			{
				"patchline" : 				{
					"destination" : [ "obj-112", 0 ],
					"order" : 1,
					"source" : [ "obj-22", 0 ]
				}

			}
, 			{
				"patchline" : 				{
					"destination" : [ "obj-8", 0 ],
					"order" : 0,
					"source" : [ "obj-22", 0 ]
				}

			}
, 			{
				"patchline" : 				{
					"destination" : [ "obj-6", 0 ],
					"source" : [ "obj-23", 0 ]
				}

			}
, 			{
				"patchline" : 				{
					"destination" : [ "obj-105", 0 ],
					"source" : [ "obj-24", 0 ]
				}

			}
, 			{
				"patchline" : 				{
					"destination" : [ "obj-77", 0 ],
					"source" : [ "obj-25", 0 ]
				}

			}
, 			{
				"patchline" : 				{
					"destination" : [ "obj-30", 0 ],
					"source" : [ "obj-26", 0 ]
				}

			}
, 			{
				"patchline" : 				{
					"destination" : [ "obj-48", 0 ],
					"source" : [ "obj-27", 0 ]
				}

			}
, 			{
				"patchline" : 				{
					"destination" : [ "obj-37", 0 ],
					"source" : [ "obj-28", 0 ]
				}

			}
, 			{
				"patchline" : 				{
					"destination" : [ "obj-72", 0 ],
					"source" : [ "obj-32", 0 ]
				}

			}
, 			{
				"patchline" : 				{
					"destination" : [ "obj-16", 0 ],
					"source" : [ "obj-35", 0 ]
				}

			}
, 			{
				"patchline" : 				{
					"destination" : [ "obj-21", 0 ],
					"source" : [ "obj-35", 1 ]
				}

			}
, 			{
				"patchline" : 				{
					"destination" : [ "obj-29", 0 ],
					"source" : [ "obj-35", 2 ]
				}

			}
, 			{
				"patchline" : 				{
					"destination" : [ "obj-31", 0 ],
					"source" : [ "obj-35", 3 ]
				}

			}
, 			{
				"patchline" : 				{
					"destination" : [ "obj-33", 0 ],
					"source" : [ "obj-35", 4 ]
				}

			}
, 			{
				"patchline" : 				{
					"destination" : [ "obj-38", 0 ],
					"source" : [ "obj-35", 5 ]
				}

			}
, 			{
				"patchline" : 				{
					"destination" : [ "obj-39", 0 ],
					"source" : [ "obj-35", 6 ]
				}

			}
, 			{
				"patchline" : 				{
					"destination" : [ "obj-20", 0 ],
					"source" : [ "obj-36", 0 ]
				}

			}
, 			{
				"patchline" : 				{
					"destination" : [ "obj-67", 0 ],
					"order" : 1,
					"source" : [ "obj-44", 0 ]
				}

			}
, 			{
				"patchline" : 				{
					"destination" : [ "obj-71", 0 ],
					"order" : 0,
					"source" : [ "obj-44", 0 ]
				}

			}
, 			{
				"patchline" : 				{
					"destination" : [ "obj-3", 1 ],
					"order" : 0,
					"source" : [ "obj-47", 0 ]
				}

			}
, 			{
				"patchline" : 				{
					"destination" : [ "obj-37", 1 ],
					"order" : 1,
					"source" : [ "obj-47", 0 ]
				}

			}
, 			{
				"patchline" : 				{
					"destination" : [ "obj-37", 0 ],
					"order" : 3,
					"source" : [ "obj-47", 0 ]
				}

			}
, 			{
				"patchline" : 				{
					"destination" : [ "obj-54", 1 ],
					"order" : 2,
					"source" : [ "obj-47", 0 ]
				}

			}
, 			{
				"patchline" : 				{
					"destination" : [ "obj-30", 1 ],
					"order" : 2,
					"source" : [ "obj-49", 0 ]
				}

			}
, 			{
				"patchline" : 				{
					"destination" : [ "obj-34", 1 ],
					"order" : 1,
					"source" : [ "obj-49", 0 ]
				}

			}
, 			{
				"patchline" : 				{
					"destination" : [ "obj-53", 1 ],
					"order" : 0,
					"source" : [ "obj-49", 0 ]
				}

			}
, 			{
				"patchline" : 				{
					"destination" : [ "obj-7", 0 ],
					"source" : [ "obj-5", 0 ]
				}

			}
, 			{
				"patchline" : 				{
					"destination" : [ "obj-32", 0 ],
					"source" : [ "obj-50", 0 ]
				}

			}
, 			{
				"patchline" : 				{
					"destination" : [ "obj-46", 1 ],
					"order" : 2,
					"source" : [ "obj-51", 0 ]
				}

			}
, 			{
				"patchline" : 				{
					"destination" : [ "obj-52", 1 ],
					"order" : 1,
					"source" : [ "obj-51", 0 ]
				}

			}
, 			{
				"patchline" : 				{
					"destination" : [ "obj-87", 1 ],
					"order" : 0,
					"source" : [ "obj-51", 0 ]
				}

			}
, 			{
				"patchline" : 				{
					"destination" : [ "obj-20", 0 ],
					"source" : [ "obj-55", 0 ]
				}

			}
, 			{
				"patchline" : 				{
					"destination" : [ "obj-73", 0 ],
					"source" : [ "obj-59", 0 ]
				}

			}
, 			{
				"patchline" : 				{
					"destination" : [ "obj-25", 0 ],
					"source" : [ "obj-62", 0 ]
				}

			}
, 			{
				"patchline" : 				{
					"destination" : [ "obj-7", 0 ],
					"source" : [ "obj-69", 0 ]
				}

			}
, 			{
				"patchline" : 				{
					"destination" : [ "obj-109", 0 ],
					"source" : [ "obj-7", 0 ]
				}

			}
, 			{
				"patchline" : 				{
					"destination" : [ "obj-30", 0 ],
					"source" : [ "obj-71", 1 ]
				}

			}
, 			{
				"patchline" : 				{
					"destination" : [ "obj-37", 0 ],
					"source" : [ "obj-71", 2 ]
				}

			}
, 			{
				"patchline" : 				{
					"destination" : [ "obj-48", 0 ],
					"source" : [ "obj-71", 0 ]
				}

			}
, 			{
				"patchline" : 				{
					"destination" : [ "obj-90", 0 ],
					"source" : [ "obj-72", 0 ]
				}

			}
, 			{
				"patchline" : 				{
					"destination" : [ "obj-2", 0 ],
					"source" : [ "obj-73", 0 ]
				}

			}
, 			{
				"patchline" : 				{
					"destination" : [ "obj-7", 1 ],
					"source" : [ "obj-74", 0 ]
				}

			}
, 			{
				"patchline" : 				{
					"destination" : [ "obj-84", 0 ],
					"source" : [ "obj-75", 0 ]
				}

			}
, 			{
				"patchline" : 				{
					"destination" : [ "obj-85", 0 ],
					"source" : [ "obj-75", 1 ]
				}

			}
, 			{
				"patchline" : 				{
					"destination" : [ "obj-86", 0 ],
					"source" : [ "obj-75", 2 ]
				}

			}
, 			{
				"patchline" : 				{
					"destination" : [ "obj-1", 0 ],
					"order" : 0,
					"source" : [ "obj-77", 0 ]
				}

			}
, 			{
				"patchline" : 				{
					"destination" : [ "obj-17", 0 ],
					"order" : 0,
					"source" : [ "obj-77", 1 ]
				}

			}
, 			{
				"patchline" : 				{
					"destination" : [ "obj-24", 0 ],
					"order" : 1,
					"source" : [ "obj-77", 2 ]
				}

			}
, 			{
				"patchline" : 				{
					"destination" : [ "obj-26", 0 ],
					"order" : 1,
					"source" : [ "obj-77", 0 ]
				}

			}
, 			{
				"patchline" : 				{
					"destination" : [ "obj-27", 0 ],
					"order" : 1,
					"source" : [ "obj-77", 1 ]
				}

			}
, 			{
				"patchline" : 				{
					"destination" : [ "obj-28", 0 ],
					"order" : 2,
					"source" : [ "obj-77", 2 ]
				}

			}
, 			{
				"patchline" : 				{
					"destination" : [ "obj-41", 1 ],
					"order" : 0,
					"source" : [ "obj-77", 2 ]
				}

			}
, 			{
				"patchline" : 				{
					"destination" : [ "obj-36", 0 ],
					"source" : [ "obj-79", 0 ]
				}

			}
, 			{
				"patchline" : 				{
					"destination" : [ "obj-14", 1 ],
					"source" : [ "obj-8", 0 ]
				}

			}
, 			{
				"patchline" : 				{
					"destination" : [ "obj-23", 6 ],
					"source" : [ "obj-80", 0 ]
				}

			}
, 			{
				"patchline" : 				{
					"destination" : [ "obj-23", 5 ],
					"source" : [ "obj-81", 0 ]
				}

			}
, 			{
				"patchline" : 				{
					"destination" : [ "obj-48", 1 ],
					"source" : [ "obj-82", 0 ]
				}

			}
, 			{
				"patchline" : 				{
					"destination" : [ "obj-3", 0 ],
					"order" : 2,
					"source" : [ "obj-84", 0 ]
				}

			}
, 			{
				"patchline" : 				{
					"destination" : [ "obj-69", 0 ],
					"order" : 1,
					"source" : [ "obj-84", 0 ]
				}

			}
, 			{
				"patchline" : 				{
					"destination" : [ "obj-70", 0 ],
					"order" : 0,
					"source" : [ "obj-84", 0 ]
				}

			}
, 			{
				"patchline" : 				{
					"destination" : [ "obj-107", 0 ],
					"order" : 1,
					"source" : [ "obj-85", 0 ]
				}

			}
, 			{
				"patchline" : 				{
					"destination" : [ "obj-34", 0 ],
					"order" : 2,
					"source" : [ "obj-85", 0 ]
				}

			}
, 			{
				"patchline" : 				{
					"destination" : [ "obj-5", 0 ],
					"order" : 0,
					"source" : [ "obj-85", 0 ]
				}

			}
, 			{
				"patchline" : 				{
					"destination" : [ "obj-108", 0 ],
					"order" : 1,
					"source" : [ "obj-86", 0 ]
				}

			}
, 			{
				"patchline" : 				{
					"destination" : [ "obj-74", 0 ],
					"order" : 0,
					"source" : [ "obj-86", 0 ]
				}

			}
, 			{
				"patchline" : 				{
					"destination" : [ "obj-87", 0 ],
					"order" : 2,
					"source" : [ "obj-86", 0 ]
				}

			}
, 			{
				"patchline" : 				{
					"destination" : [ "obj-14", 0 ],
					"source" : [ "obj-9", 0 ]
				}

			}
, 			{
				"patchline" : 				{
					"destination" : [ "obj-18", 0 ],
					"source" : [ "obj-90", 1 ]
				}

			}
, 			{
				"patchline" : 				{
					"destination" : [ "obj-22", 0 ],
					"source" : [ "obj-90", 2 ]
				}

			}
, 			{
				"patchline" : 				{
					"destination" : [ "obj-91", 0 ],
					"source" : [ "obj-90", 0 ]
				}

			}
, 			{
				"patchline" : 				{
					"destination" : [ "obj-10", 0 ],
					"order" : 1,
					"source" : [ "obj-91", 0 ]
				}

			}
, 			{
				"patchline" : 				{
					"destination" : [ "obj-68", 0 ],
					"order" : 0,
					"source" : [ "obj-91", 0 ]
				}

			}
, 			{
				"patchline" : 				{
					"destination" : [ "obj-23", 0 ],
					"source" : [ "obj-93", 1 ]
				}

			}
, 			{
				"patchline" : 				{
					"destination" : [ "obj-98", 0 ],
					"source" : [ "obj-97", 0 ]
				}

			}
, 			{
				"patchline" : 				{
					"destination" : [ "obj-93", 1 ],
					"source" : [ "obj-98", 0 ]
				}

			}
, 			{
				"patchline" : 				{
					"destination" : [ "obj-23", 4 ],
					"source" : [ "obj-99", 0 ]
				}

			}
 ],
		"parameters" : 		{
			"obj-111::obj-1" : [ "live.text[298]", "live.text", 0 ],
			"obj-111::obj-18" : [ "live.text[928]", "live.text", 0 ],
			"obj-111::obj-2" : [ "live.text[297]", "live.text", 0 ],
			"obj-111::obj-37" : [ "live.numbox[73]", "live.numbox", 0 ],
			"obj-111::obj-39" : [ "live.numbox[83]", "live.numbox", 0 ],
			"obj-111::obj-42" : [ "live.text[121]", "live.text", 0 ],
			"obj-12::obj-6" : [ "live.text[616]", "live.text", 0 ],
			"obj-2::obj-13" : [ "live.numbox[16]", "live.numbox", 0 ],
			"obj-2::obj-15" : [ "live.text[34]", "live.text", 0 ],
			"obj-30::obj-21" : [ "live.text[6]", "live.text", 0 ],
			"obj-30::obj-3" : [ "slider-[2]", "slider-", 0 ],
			"obj-30::obj-35" : [ "live.text[8]", "live.text", 0 ],
			"obj-30::obj-38" : [ "live.text[7]", "live.text", 0 ],
			"obj-30::obj-56" : [ "live.numbox[2]", "live.numbox", 0 ],
			"obj-34::obj-21" : [ "live.text[47]", "live.text", 0 ],
			"obj-34::obj-3" : [ "slider-[20]", "slider-", 0 ],
			"obj-34::obj-35" : [ "live.text[48]", "live.text", 0 ],
			"obj-34::obj-38" : [ "live.text[3]", "live.text", 0 ],
			"obj-34::obj-56" : [ "live.numbox[6]", "live.numbox", 0 ],
			"obj-37::obj-19" : [ "live.text[2]", "live.text", 0 ],
			"obj-37::obj-3" : [ "slider-[1]", "slider-", 0 ],
			"obj-37::obj-35" : [ "live.text[4]", "live.text", 0 ],
			"obj-37::obj-38" : [ "live.text[5]", "live.text", 0 ],
			"obj-37::obj-56" : [ "live.numbox[1]", "live.numbox", 0 ],
			"obj-3::obj-19" : [ "live.text[140]", "live.text", 0 ],
			"obj-3::obj-3" : [ "slider-[51]", "slider-", 0 ],
			"obj-3::obj-35" : [ "live.text[139]", "live.text", 0 ],
			"obj-3::obj-38" : [ "live.text[1]", "live.text", 0 ],
			"obj-3::obj-56" : [ "live.numbox[9]", "live.numbox", 0 ],
			"obj-46::obj-21" : [ "live.text[12]", "live.text", 0 ],
			"obj-46::obj-3" : [ "slider-[4]", "slider-", 0 ],
			"obj-46::obj-35" : [ "live.text[13]", "live.text", 0 ],
			"obj-46::obj-38" : [ "live.text[14]", "live.text", 0 ],
			"obj-46::obj-56" : [ "live.numbox[11]", "live.numbox", 0 ],
			"obj-48::obj-19" : [ "live.text[23]", "live.text", 0 ],
			"obj-48::obj-3" : [ "slider-[5]", "slider-", 0 ],
			"obj-48::obj-35" : [ "live.text[24]", "live.text", 0 ],
			"obj-48::obj-38" : [ "live.text[22]", "live.text", 0 ],
			"obj-48::obj-56" : [ "live.numbox[12]", "live.numbox", 0 ],
			"obj-52::obj-21" : [ "live.text[32]", "live.text", 0 ],
			"obj-52::obj-3" : [ "slider-[8]", "slider-", 0 ],
			"obj-52::obj-35" : [ "live.text[33]", "live.text", 0 ],
			"obj-52::obj-38" : [ "live.text[31]", "live.text", 0 ],
			"obj-52::obj-56" : [ "live.numbox[15]", "live.numbox", 0 ],
			"obj-53::obj-21" : [ "live.text[30]", "live.text", 0 ],
			"obj-53::obj-3" : [ "slider-[7]", "slider-", 0 ],
			"obj-53::obj-35" : [ "live.text[29]", "live.text", 0 ],
			"obj-53::obj-38" : [ "live.text[28]", "live.text", 0 ],
			"obj-53::obj-56" : [ "live.numbox[14]", "live.numbox", 0 ],
			"obj-54::obj-19" : [ "live.text[26]", "live.text", 0 ],
			"obj-54::obj-3" : [ "slider-[6]", "slider-", 0 ],
			"obj-54::obj-35" : [ "live.text[27]", "live.text", 0 ],
			"obj-54::obj-38" : [ "live.text[25]", "live.text", 0 ],
			"obj-54::obj-56" : [ "live.numbox[13]", "live.numbox", 0 ],
			"obj-6::obj-21" : [ "live.text[319]", "live.text", 0 ],
			"obj-6::obj-4" : [ "live.text[318]", "live.text", 0 ],
			"obj-6::obj-52" : [ "live.numbox[352]", "live.numbox", 0 ],
			"obj-72::obj-13" : [ "live.numbox[87]", "live.numbox", 0 ],
			"obj-72::obj-15" : [ "live.text[171]", "live.text", 0 ],
			"obj-87::obj-21" : [ "live.text[10]", "live.text", 0 ],
			"obj-87::obj-3" : [ "slider-[3]", "slider-", 0 ],
			"obj-87::obj-35" : [ "live.text[11]", "live.text", 0 ],
			"obj-87::obj-38" : [ "live.text[9]", "live.text", 0 ],
			"obj-87::obj-56" : [ "live.numbox[10]", "live.numbox", 0 ],
			"obj-93::obj-38" : [ "live.text[20]", "live.text", 0 ],
			"obj-93::obj-4" : [ "live.text[56]", "live.text", 0 ],
			"obj-93::obj-56" : [ "live.numbox[3]", "live.numbox", 0 ],
			"obj-93::obj-59" : [ "live.text[21]", "live.text", 0 ],
			"parameterbanks" : 			{
				"0" : 				{
					"index" : 0,
					"name" : "",
					"parameters" : [ "-", "-", "-", "-", "-", "-", "-", "-" ]
				}

			}
,
			"parameter_overrides" : 			{
				"obj-2::obj-13" : 				{
					"parameter_longname" : "live.numbox[16]"
				}
,
				"obj-2::obj-15" : 				{
					"parameter_longname" : "live.text[34]"
				}
,
				"obj-30::obj-21" : 				{
					"parameter_longname" : "live.text[6]"
				}
,
				"obj-30::obj-35" : 				{
					"parameter_longname" : "live.text[8]"
				}
,
				"obj-30::obj-38" : 				{
					"parameter_longname" : "live.text[7]"
				}
,
				"obj-30::obj-56" : 				{
					"parameter_longname" : "live.numbox[2]"
				}
,
				"obj-37::obj-19" : 				{
					"parameter_longname" : "live.text[2]"
				}
,
				"obj-37::obj-35" : 				{
					"parameter_longname" : "live.text[4]"
				}
,
				"obj-37::obj-38" : 				{
					"parameter_longname" : "live.text[5]"
				}
,
				"obj-37::obj-56" : 				{
					"parameter_longname" : "live.numbox[1]"
				}
,
				"obj-46::obj-21" : 				{
					"parameter_longname" : "live.text[12]"
				}
,
				"obj-46::obj-35" : 				{
					"parameter_longname" : "live.text[13]"
				}
,
				"obj-46::obj-38" : 				{
					"parameter_longname" : "live.text[14]"
				}
,
				"obj-46::obj-56" : 				{
					"parameter_longname" : "live.numbox[11]"
				}
,
				"obj-48::obj-19" : 				{
					"parameter_longname" : "live.text[23]"
				}
,
				"obj-48::obj-35" : 				{
					"parameter_longname" : "live.text[24]"
				}
,
				"obj-48::obj-38" : 				{
					"parameter_longname" : "live.text[22]"
				}
,
				"obj-48::obj-56" : 				{
					"parameter_longname" : "live.numbox[12]"
				}
,
				"obj-52::obj-21" : 				{
					"parameter_longname" : "live.text[32]"
				}
,
				"obj-52::obj-35" : 				{
					"parameter_longname" : "live.text[33]"
				}
,
				"obj-52::obj-38" : 				{
					"parameter_longname" : "live.text[31]"
				}
,
				"obj-52::obj-56" : 				{
					"parameter_longname" : "live.numbox[15]"
				}
,
				"obj-53::obj-21" : 				{
					"parameter_longname" : "live.text[30]"
				}
,
				"obj-53::obj-35" : 				{
					"parameter_longname" : "live.text[29]"
				}
,
				"obj-53::obj-38" : 				{
					"parameter_longname" : "live.text[28]"
				}
,
				"obj-53::obj-56" : 				{
					"parameter_longname" : "live.numbox[14]"
				}
,
				"obj-54::obj-19" : 				{
					"parameter_longname" : "live.text[26]"
				}
,
				"obj-54::obj-35" : 				{
					"parameter_longname" : "live.text[27]"
				}
,
				"obj-54::obj-38" : 				{
					"parameter_longname" : "live.text[25]"
				}
,
				"obj-54::obj-56" : 				{
					"parameter_longname" : "live.numbox[13]"
				}
,
				"obj-87::obj-21" : 				{
					"parameter_longname" : "live.text[10]"
				}
,
				"obj-87::obj-35" : 				{
					"parameter_longname" : "live.text[11]"
				}
,
				"obj-87::obj-38" : 				{
					"parameter_longname" : "live.text[9]"
				}
,
				"obj-87::obj-56" : 				{
					"parameter_longname" : "live.numbox[10]"
				}
,
				"obj-93::obj-56" : 				{
					"parameter_longname" : "live.numbox[3]"
				}

			}
,
			"inherited_shortname" : 1
		}
,
		"dependency_cache" : [ 			{
				"name" : "a-mo.settings.maxpat",
				"bootpath" : "~/Documents/Max 8/Packages/modulo/misc/abstractions",
				"patcherrelativepath" : "../../../../../../../../Documents/Max 8/Packages/modulo/misc/abstractions",
				"type" : "JSON",
				"implicit" : 1
			}
, 			{
				"name" : "mo.color.txt",
				"bootpath" : "~/Documents/Max 8/Packages/modulo/misc/colls",
				"patcherrelativepath" : "../../../../../../../../Documents/Max 8/Packages/modulo/misc/colls",
				"type" : "TEXT",
				"implicit" : 1
			}
, 			{
				"name" : "mo.colors.txt",
				"bootpath" : "~/Documents/Max 8/Packages/modulo/misc/colls",
				"patcherrelativepath" : "../../../../../../../../Documents/Max 8/Packages/modulo/misc/colls",
				"type" : "TEXT",
				"implicit" : 1
			}
, 			{
				"name" : "mo.crosspatch.maxpat",
				"bootpath" : "~/Documents/Max 8/Packages/modulo/patchers/route",
				"patcherrelativepath" : "../../../../../../../../Documents/Max 8/Packages/modulo/patchers/route",
				"type" : "JSON",
				"implicit" : 1
			}
, 			{
				"name" : "mo.hslider.maxpat",
				"bootpath" : "~/Documents/Max 8/Packages/modulo/patchers/input",
				"patcherrelativepath" : "../../../../../../../../Documents/Max 8/Packages/modulo/patchers/input",
				"type" : "JSON",
				"implicit" : 1
			}
, 			{
				"name" : "mo.monitor.maxpat",
				"bootpath" : "~/Documents/Max 8/Packages/modulo/patchers/utility",
				"patcherrelativepath" : "../../../../../../../../Documents/Max 8/Packages/modulo/patchers/utility",
				"type" : "JSON",
				"implicit" : 1
			}
, 			{
				"name" : "mo.resize.js",
				"bootpath" : "~/Documents/Max 8/Packages/modulo/misc/js",
				"patcherrelativepath" : "../../../../../../../../Documents/Max 8/Packages/modulo/misc/js",
				"type" : "TEXT",
				"implicit" : 1
			}
, 			{
				"name" : "mo.smooth.maxpat",
				"bootpath" : "~/Documents/Max 8/Packages/modulo/patchers/transform",
				"patcherrelativepath" : "../../../../../../../../Documents/Max 8/Packages/modulo/patchers/transform",
				"type" : "JSON",
				"implicit" : 1
			}
, 			{
				"name" : "mo.tabs.maxpat",
				"bootpath" : "~/Documents/Max 8/Packages/modulo/patchers/input",
				"patcherrelativepath" : "../../../../../../../../Documents/Max 8/Packages/modulo/patchers/input",
				"type" : "JSON",
				"implicit" : 1
			}
, 			{
				"name" : "mo.udpreceive.maxpat",
				"bootpath" : "~/Documents/Max 8/Packages/modulo/patchers/route",
				"patcherrelativepath" : "../../../../../../../../Documents/Max 8/Packages/modulo/patchers/route",
				"type" : "JSON",
				"implicit" : 1
			}
, 			{
				"name" : "mo.vslider.maxpat",
				"bootpath" : "~/Documents/Max 8/Packages/modulo/patchers/input",
				"patcherrelativepath" : "../../../../../../../../Documents/Max 8/Packages/modulo/patchers/input",
				"type" : "JSON",
				"implicit" : 1
			}
 ],
		"autosave" : 0
	}

}
